<svg width="512" height="512" viewBox="0 0 512 512" fill="none" xmlns="http://www.w3.org/2000/svg">
<path d="M416 156H348V148C348 97.2 306.8 56 256 56C205.2 56 164 97.2 164 148V156H96C87.15 156 80 163.15 80 172V440C80 448.85 87.15 456 96 456H416C424.85 456 432 448.85 432 440V172C432 163.15 424.85 156 416 156ZM200 148C200 117.05 225.05 92 256 92C286.95 92 312 117.05 312 148V156H200V148ZM396 420H116V192H164V236C164 238.2 165.8 240 168 240H196C198.2 240 200 238.2 200 236V192H312V236C312 238.2 313.8 240 316 240H344C346.2 240 348 238.2 348 236V192H396V420Z" fill="#0D9488"/>
<path d="M225.422 398.519L157.867 330.963L174.756 314.074L225.422 364.741L334.163 256L351.052 272.889L225.422 398.519Z" fill="#0D9488"/>
</svg>
